<?xml version="1.0" encoding="UTF-8" standalone="no"?>
<!-- Created with EazyDraw for Mac ( https://www.eazydraw.com/ ) -->

<svg
   version="1.1"
   width="190.7682112"
   height="190.7682112"
   viewBox="0, 0, 190.7682112, 190.7682112"
   preserveAspectRatio="none"
   id="svg2"
   sodipodi:docname="top_plate_ponoko1.svg"
   inkscape:version="1.3.2 (091e20e, 2023-11-25)"
   xmlns:inkscape="http://www.inkscape.org/namespaces/inkscape"
   xmlns:sodipodi="http://sodipodi.sourceforge.net/DTD/sodipodi-0.dtd"
   xmlns="http://www.w3.org/2000/svg"
   xmlns:svg="http://www.w3.org/2000/svg"
   xmlns:rdf="http://www.w3.org/1999/02/22-rdf-syntax-ns#"
   xmlns:cc="http://creativecommons.org/ns#"
   xmlns:dc="http://purl.org/dc/elements/1.1/">
  <sodipodi:namedview
     id="namedview1"
     pagecolor="#ffffff"
     bordercolor="#666666"
     borderopacity="1.0"
     inkscape:showpageshadow="2"
     inkscape:pageopacity="0.0"
     inkscape:pagecheckerboard="0"
     inkscape:deskcolor="#d1d1d1"
     inkscape:zoom="9.8968275"
     inkscape:cx="73.811532"
     inkscape:cy="172.93421"
     inkscape:window-width="1800"
     inkscape:window-height="872"
     inkscape:window-x="268"
     inkscape:window-y="58"
     inkscape:window-maximized="0"
     inkscape:current-layer="svg2" />
  <defs
     id="defs_716864F5" />
  <metadata
     id="metadata7">
    <rdf:RDF>
      <cc:Work
         rdf:about="">
        <dc:format>image/svg+xml</dc:format>
        <dc:type
           rdf:resource="http://purl.org/dc/dcmitype/StillImage" />
        <dc:title />
      </cc:Work>
    </rdf:RDF>
  </metadata>
  <circle
     style="fill:none;fill-opacity:1;fill-rule:nonzero;stroke:#0433ff;stroke-width:1;stroke-linecap:butt;stroke-linejoin:miter;stroke-miterlimit:4;stroke-opacity:1;vector-effect:non-scaling-stroke;-inkscape-stroke:hairline;stroke-dasharray:none"
     id="5A76FBF4"
     cx="95.384102"
     cy="178.59514"
     r="7.0866151" />
  <circle
     style="vector-effect:non-scaling-stroke;fill:none;fill-opacity:1;fill-rule:nonzero;stroke:#0433ff;stroke-width:1;stroke-linecap:butt;stroke-linejoin:miter;stroke-miterlimit:4;stroke-dasharray:none;stroke-opacity:1;-inkscape-stroke:hairline"
     id="7A76FBF4-2"
     cx="11.367985"
     cy="94.883987"
     r="2.1259844" />
  <circle
     style="fill:none;fill-opacity:1;fill-rule:nonzero;stroke:#0433ff;stroke-width:1;stroke-linecap:butt;stroke-linejoin:miter;stroke-miterlimit:4;stroke-opacity:1;vector-effect:non-scaling-stroke;-inkscape-stroke:hairline;stroke-dasharray:none"
     id="7A76FBF4"
     cx="178.89958"
     cy="95.384102"
     r="2.1259844" />
  <circle
     style="fill:none;fill-opacity:1;fill-rule:nonzero;stroke:#0433ff;stroke-width:1;stroke-linecap:butt;stroke-linejoin:miter;stroke-miterlimit:4;stroke-opacity:1;vector-effect:non-scaling-stroke;-inkscape-stroke:hairline;stroke-dasharray:none"
     id="8A76FBF4"
     cx="95.384102"
     cy="11.868631"
     r="2.1259844" />
  <circle
     style="fill:none;fill-opacity:1;fill-rule:nonzero;stroke:#0433ff;stroke-width:1;stroke-linecap:butt;stroke-linejoin:miter;stroke-miterlimit:4;stroke-opacity:1;stroke-dasharray:none;vector-effect:non-scaling-stroke;-inkscape-stroke:hairline"
     id="9A76FBF4"
     cx="95.384102"
     cy="95.384102"
     r="95.244102" />
  <path
     style="color:#000000;fill:#000000;-inkscape-stroke:none"
     d="m 94.884766,187.69531 v 2.9336 h 1 v -2.9336 z"
     id="AA76FBF4" />
  <circle
     style="fill:none;fill-opacity:1;fill-rule:nonzero;stroke:#0433ff;stroke-width:1;stroke-linecap:butt;stroke-linejoin:miter;stroke-miterlimit:4;stroke-opacity:1;stroke-dasharray:none;vector-effect:non-scaling-stroke;-inkscape-stroke:hairline"
     id="BA76FBF4"
     cx="95.384102"
     cy="95.384102"
     r="71.454056" />
  <path
     style="color:#000000;fill:#000000;-inkscape-stroke:none"
     d="m 95.384766,168.99414 c -5.296511,0 -9.601563,4.30505 -9.601563,9.60156 0,5.29651 4.305052,9.59961 9.601563,9.59961 5.296514,0 9.599614,-4.3031 9.599614,-9.59961 0,-5.29651 -4.3031,-9.60156 -9.599614,-9.60156 z m 0,1 c 4.756074,0 8.599614,3.84549 8.599614,8.60156 0,4.75607 -3.84354,8.59961 -8.599614,8.59961 -4.756072,0 -8.601563,-3.84354 -8.601563,-8.59961 0,-4.75607 3.845491,-8.60156 8.601563,-8.60156 z"
     id="CA76FBF4" />
  <path
     style="color:#000000;fill:#000000;-inkscape-stroke:none"
     d="m 110.99414,173.91211 c -1.93555,0 -3.51562,1.58007 -3.51562,3.51562 0,1.93556 1.58007,3.51563 3.51562,3.51563 1.93555,0 3.51367,-1.58007 3.51367,-3.51563 0,-1.93555 -1.57812,-3.51562 -3.51367,-3.51562 z m 0,1 c 1.39511,0 2.51367,1.12051 2.51367,2.51562 0,1.39512 -1.11856,2.51563 -2.51367,2.51563 -1.39511,0 -2.51562,-1.12051 -2.51562,-2.51563 0,-1.39511 1.12051,-2.51562 2.51562,-2.51562 z"
     id="DA76FBF4" />
  <g
     id="EA76FBF4">
    <path
       style="color:#000000;fill:#000000;-inkscape-stroke:none"
       d="m 112.40764,180.44231 a 1.4911145,1.4911145 0 0 1 -1.49111,1.49111 1.4911145,1.4911145 0 0 1 -1.49112,-1.49111 1.4911145,1.4911145 0 0 1 1.49112,-1.49112 1.4911145,1.4911145 0 0 1 1.49111,1.49112 z"
       id="path41" />
    <path
       style="color:#000000;fill:#000000;-inkscape-stroke:none"
       d="m 110.91602,178.80859 c -0.90012,0 -1.63282,0.7327 -1.63282,1.63282 0,0.90011 0.7327,1.63281 1.63282,1.63281 0.90011,0 1.63281,-0.7327 1.63281,-1.63281 0,-0.90012 -0.7327,-1.63282 -1.63281,-1.63282 z m 0,0.28516 c 0.74692,0 1.34961,0.60074 1.34961,1.34766 0,0.74692 -0.60269,1.34961 -1.34961,1.34961 -0.74693,0 -1.34961,-0.60269 -1.34961,-1.34961 0,-0.74692 0.60268,-1.34766 1.34961,-1.34766 z"
       id="path42" />
  </g>
  <g
     id="FA76FBF4">
    <path
       style="color:#000000;fill:#000000;-inkscape-stroke:none"
       d="m 112.56115,174.41354 a 1.4911145,1.4911145 0 0 1 -1.49111,1.49112 1.4911145,1.4911145 0 0 1 -1.49112,-1.49112 1.4911145,1.4911145 0 0 1 1.49112,-1.49111 1.4911145,1.4911145 0 0 1 1.49111,1.49111 z"
       id="path43" />
    <path
       style="color:#000000;fill:#000000;-inkscape-stroke:none"
       d="m 111.07031,172.78125 c -0.90011,0 -1.63281,0.7327 -1.63281,1.63281 0,0.90012 0.7327,1.63282 1.63281,1.63281 0.90012,0 1.63282,-0.73269 1.63282,-1.63281 0,-0.90011 -0.7327,-1.63281 -1.63282,-1.63281 z m 0,0.2832 c 0.74692,0 1.34961,0.60269 1.34961,1.34961 0,0.74692 -0.60269,1.34961 -1.34961,1.34961 -0.74692,0 -1.34961,-0.60269 -1.34961,-1.34961 0,-0.74692 0.60269,-1.34961 1.34961,-1.34961 z"
       id="path44" />
  </g>
  <g
     id="0B76FBF4">
    <path
       style="color:#000000;fill:#000000;-inkscape-stroke:none"
       d="m 114.03763,175.35071 a 0.85858595,0.85858595 0 0 1 -0.85858,0.85858 0.85858595,0.85858595 0 0 1 -0.85859,-0.85858 0.85858595,0.85858595 0 0 1 0.85859,-0.85859 0.85858595,0.85858595 0 0 1 0.85858,0.85859 z"
       id="path45" />
    <path
       style="color:#000000;fill:#000000;-inkscape-stroke:none"
       d="m 113.17969,174.34961 c -0.55078,0 -1,0.45117 -1,1.00195 0,0.55078 0.44922,1 1,1 0.55078,0 1,-0.44922 1,-1 0,-0.55078 -0.44922,-1.00195 -1,-1.00195 z m 0,0.28516 c 0.39758,0 0.71679,0.31921 0.71679,0.71679 0,0.39759 -0.31921,0.7168 -0.71679,0.7168 -0.39759,0 -0.7168,-0.31921 -0.7168,-0.7168 0,-0.39758 0.31921,-0.71679 0.7168,-0.71679 z"
       id="path46" />
  </g>
  <path
     style="color:#000000;fill:#000000;-inkscape-stroke:none"
     d="m 148.64844,157.47461 c -2.92437,0.30642 -5.73171,1.72567 -7.72657,4.1875 -2.63255,3.24882 -3.29287,7.67412 -1.7207,11.54883 l 0.92774,-0.375 c -1.43592,-3.5389 -0.83605,-7.57572 1.56836,-10.54297 3.64947,-4.50377 10.24426,-5.19439 14.74804,-1.54492 l 0.63086,-0.77735 c -2.46183,-1.99485 -5.50336,-2.80251 -8.42773,-2.49609 z"
     id="1B76FBF4" />
  <g
     id="2B76FBF4">
    <path
       style="color:#000000;fill:#000000;-inkscape-stroke:none"
       d="m 143.98568,168.98875 a 3.0820425,3.0820425 0 0 1 -3.08204,3.08205 3.0820425,3.0820425 0 0 1 -3.08204,-3.08205 3.0820425,3.0820425 0 0 1 3.08204,-3.08204 3.0820425,3.0820425 0 0 1 3.08204,3.08204 z"
       id="path47" />
    <path
       style="color:#000000;fill:#000000;-inkscape-stroke:none"
       d="m 140.9043,165.76562 c -1.77876,0 -3.22461,1.4439 -3.22461,3.22266 0,1.77876 1.44585,3.22461 3.22461,3.22461 1.77876,0 3.22265,-1.44585 3.22265,-3.22461 0,-1.77876 -1.44389,-3.22266 -3.22265,-3.22266 z m 0,0.28321 c 1.62556,0 2.93945,1.31389 2.93945,2.93945 0,1.62557 -1.31389,2.94141 -2.93945,2.94141 -1.62557,0 -2.94141,-1.31584 -2.94141,-2.94141 0,-1.62556 1.31584,-2.93945 2.94141,-2.93945 z"
       id="path48" />
  </g>
  <g
     id="3B76FBF4">
    <path
       style="color:#000000;fill:#000000;-inkscape-stroke:none"
       d="m 155.96852,160.83635 a 3.0820425,3.0820425 0 0 1 -3.08205,3.08204 3.0820425,3.0820425 0 0 1 -3.08204,-3.08204 3.0820425,3.0820425 0 0 1 3.08204,-3.08204 3.0820425,3.0820425 0 0 1 3.08205,3.08204 z"
       id="path39" />
    <path
       style="color:#000000;fill:#000000;-inkscape-stroke:none"
       d="m 152.88672,157.61328 c -1.77876,0 -3.22461,1.4439 -3.22461,3.22266 0,1.77876 1.44585,3.22461 3.22461,3.22461 1.77876,0 3.22265,-1.44585 3.22265,-3.22461 0,-1.77876 -1.44389,-3.22266 -3.22265,-3.22266 z m 0,0.2832 c 1.62556,0 2.93945,1.31389 2.93945,2.93946 0,1.62556 -1.31389,2.9414 -2.93945,2.9414 -1.62557,0 -2.94141,-1.31584 -2.94141,-2.9414 0,-1.62557 1.31584,-2.93946 2.94141,-2.93946 z"
       id="path40" />
  </g>
  <g
     id="4B76FBF4">
    <path
       style="color:#000000;fill:#000000;-inkscape-stroke:none"
       d="m 148.87599,161.18857 a 1.4911145,1.4911145 0 0 1 -1.49112,1.49111 1.4911145,1.4911145 0 0 1 -1.49111,-1.49111 1.4911145,1.4911145 0 0 1 1.49111,-1.49112 1.4911145,1.4911145 0 0 1 1.49112,1.49112 z"
       id="path49" />
    <path
       style="color:#000000;fill:#000000;-inkscape-stroke:none"
       d="m 147.38477,159.55664 c -0.90012,0 -1.63282,0.7327 -1.63282,1.63281 0,0.90012 0.7327,1.63282 1.63282,1.63282 0.90011,0 1.63281,-0.7327 1.63281,-1.63282 0,-0.90011 -0.7327,-1.63281 -1.63281,-1.63281 z m 0,0.2832 c 0.74692,0 1.3496,0.60269 1.3496,1.34961 0,0.74692 -0.60268,1.34766 -1.3496,1.34766 -0.74693,0 -1.34961,-0.60074 -1.34961,-1.34766 0,-0.74692 0.60268,-1.34961 1.34961,-1.34961 z"
       id="path50" />
  </g>
  <path
     style="color:#000000;fill:#000000;-inkscape-stroke:none"
     d="m 147.68555,168.48437 c -1.09374,0 -1.99024,0.89845 -1.99024,1.99219 0,1.09374 0.8965,1.99024 1.99024,1.99024 1.09374,0 1.99218,-0.8965 1.99218,-1.99024 0,-1.09374 -0.89844,-1.99218 -1.99218,-1.99219 z m 0,1 c 0.5533,0 0.99218,0.43889 0.99218,0.99219 0,0.5533 -0.43888,0.99024 -0.99218,0.99024 -0.5533,0 -0.99024,-0.43694 -0.99024,-0.99024 0,-0.5533 0.43694,-0.99219 0.99024,-0.99219 z"
     id="5B76FBF4" />
  <path
     style="color:#000000;fill:#000000;-inkscape-stroke:none"
     d="m 127.14648,172.67383 c -2.70891,0.13148 -5.36631,1.29486 -7.33007,3.45898 -1.4516,1.5997 -2.38048,3.6061 -2.66016,5.74805 l 0.99219,0.12891 c 0.25329,-1.93985 1.09356,-3.75437 2.4082,-5.20313 3.56436,-3.92802 9.62276,-4.22255 13.55078,-0.6582 l 0.67188,-0.74024 c -2.16413,-1.96376 -4.9239,-2.86586 -7.63282,-2.73437 z"
     id="6B76FBF4" />
  <path
     style="color:#000000;fill:#000000;-inkscape-stroke:none"
     d="m 139.41797,172.58984 c -1.70028,0.96975 -3.43277,1.8829 -5.19336,2.73828 l 0.4375,0.89844 c 1.7804,-0.86501 3.53059,-1.78692 5.25,-2.76758 z"
     id="7B76FBF4" />
  <path
     style="color:#000000;fill:#000000;-inkscape-stroke:none"
     d="m 161.95508,154.8125 c -1.60885,1.8022 -3.29128,3.53933 -5.04102,5.20508 l 0.19531,0.20508 c 1.7553,-1.67105 3.44269,-3.41279 5.05665,-5.22071 z"
     id="8B76FBF4" />
  <path
     style="color:#000000;fill:#000000;-inkscape-stroke:none"
     d="m 171.21289,132.06445 c -5.14516,-0.25765 -10.19189,2.52167 -12.57422,7.44727 -2.58463,5.34388 -1.28716,11.7629 3.16992,15.68359 l 0.66016,-0.75195 c -4.12331,-3.62708 -5.32077,-9.5524 -2.92969,-14.49609 2.94113,-6.08095 10.24133,-8.62081 16.32227,-5.67969 l 0.43554,-0.90039 c -1.64186,-0.79411 -3.36892,-1.21685 -5.08398,-1.30274 z"
     id="9B76FBF4" />
  <path
     style="color:#000000;fill:#000000;-inkscape-stroke:none"
     d="m 150.67383,142.87305 -0.0937,0.99414 7.25,0.6914 0.0957,-0.99414 z"
     id="AB76FBF4" />
  <path
     style="color:#000000;fill:#000000;-inkscape-stroke:none"
     d="m 176,94.544922 c -3.86454,0 -7.00781,3.143276 -7.00781,7.007808 0,3.86454 3.14327,7.00782 7.00781,7.00782 3.86454,0 7.00781,-3.14328 7.00781,-7.00782 0,-3.864532 -3.14327,-7.007808 -7.00781,-7.007808 z m 0,1 c 3.3241,0 6.00781,2.683716 6.00781,6.007808 0,3.3241 -2.68371,6.00782 -6.00781,6.00782 -3.3241,0 -6.00781,-2.68372 -6.00781,-6.00782 0,-3.324092 2.68371,-6.007808 6.00781,-6.007808 z"
     id="BB76FBF4" />
  <g
     id="CB76FBF4">
    <path
       style="color:#000000;fill:#000000;-inkscape-stroke:none"
       d="m 174.35859,95.847908 a 1.4911145,1.4911145 0 0 1 -1.49111,1.491115 1.4911145,1.4911145 0 0 1 -1.49112,-1.491115 1.4911145,1.4911145 0 0 1 1.49112,-1.491114 1.4911145,1.4911145 0 0 1 1.49111,1.491114 z"
       id="path37" />
    <path
       style="color:#000000;fill:#000000;-inkscape-stroke:none"
       d="m 172.86719,94.214844 c -0.90012,0 -1.63282,0.732695 -1.63282,1.632812 0,0.900117 0.7327,1.632813 1.63282,1.632813 0.90011,0 1.63281,-0.732696 1.63281,-1.632813 0,-0.900117 -0.7327,-1.632812 -1.63281,-1.632812 z m 0,0.283203 c 0.74692,0 1.34961,0.602688 1.34961,1.349609 0,0.746921 -0.60269,1.34961 -1.34961,1.34961 -0.74692,0 -1.34961,-0.602689 -1.34961,-1.34961 0,-0.746921 0.60269,-1.349609 1.34961,-1.349609 z"
       id="path38" />
  </g>
  <path
     style="color:#000000;fill:#000000;-inkscape-stroke:none"
     d="m 159.23828,151.12695 -6.4707,3.6836 0.49414,0.86914 6.4707,-3.6836 z"
     id="DB76FBF4" />
  <path
     style="color:#000000;fill:#000000;-inkscape-stroke:none"
     d="m 164.50977,131.4043 c -1.46574,0 -2.66407,1.19833 -2.66407,2.66406 0,1.46573 1.19833,2.66406 2.66407,2.66406 1.46573,0 2.66601,-1.19833 2.66601,-2.66406 0,-1.46573 -1.20028,-2.66406 -2.66601,-2.66406 z m 0,1 c 0.92529,0 1.66601,0.73877 1.66601,1.66406 0,0.92529 -0.74072,1.66406 -1.66601,1.66406 -0.9253,0 -1.66407,-0.73877 -1.66407,-1.66406 0,-0.92529 0.73877,-1.66406 1.66407,-1.66406 z"
     id="EB76FBF4" />
  <path
     style="color:#000000;fill:#000000;-inkscape-stroke:none"
     d="m 139.29297,173.07227 c -1.6102,0.91008 -3.24847,1.76985 -4.91211,2.57812 l 0.125,0.25391 c 1.66892,-0.81085 3.31242,-1.67297 4.92773,-2.58594 z"
     id="FB76FBF4" />
  <path
     style="color:#000000;fill:#000000;-inkscape-stroke:none"
     d="m 161.76562,154.48633 c -1.70261,1.91231 -3.48634,3.75154 -5.34765,5.50976 l 0.68555,0.72657 c 1.88225,-1.77801 3.68642,-3.63649 5.4082,-5.57032 z"
     id="0C76FBF4" />
  <path
     style="color:#000000;fill:#000000;-inkscape-stroke:none"
     d="m 173.75977,111.46094 -0.20704,0.97851 6.15625,1.30274 0.20704,-0.97852 z"
     id="1C76FBF4" />
  <path
     style="color:#000000;fill:#000000;-inkscape-stroke:none"
     d="m 182.82617,110.30859 c -1.97238,0 -3.58203,1.60965 -3.58203,3.58204 0,1.97238 1.60965,3.58203 3.58203,3.58203 1.97239,0 3.58203,-1.60965 3.58203,-3.58203 0,-1.97239 -1.60964,-3.58204 -3.58203,-3.58204 z m 0,1 c 1.43195,0 2.58203,1.15009 2.58203,2.58204 0,1.43194 -1.15008,2.58203 -2.58203,2.58203 -1.43194,0 -2.58203,-1.15009 -2.58203,-2.58203 0,-1.43195 1.15009,-2.58204 2.58203,-2.58204 z"
     id="2C76FBF4" />
  <path
     style="color:#000000;fill:#000000;-inkscape-stroke:none"
     d="m 172.27344,115.89648 c -3.55171,0 -6.44141,2.8897 -6.44141,6.44141 0,3.55171 2.8897,6.44141 6.44141,6.44141 3.5517,0 6.4414,-2.8897 6.4414,-6.44141 0,-3.55171 -2.8897,-6.44141 -6.4414,-6.44141 z m 0,1 c 3.01126,0 5.4414,2.43014 5.4414,5.44141 0,3.01127 -2.43014,5.44141 -5.4414,5.44141 -3.01127,0 -5.44141,-2.43014 -5.44141,-5.44141 0,-3.01127 2.43014,-5.44141 5.44141,-5.44141 z"
     id="3C76FBF4" />
  <path
     style="color:#000000;fill:#000000;-inkscape-stroke:none"
     d="m 182.69727,76.376953 c -3.67045,0.951364 -5.88105,4.712373 -4.92969,8.382813 0.79963,3.08505 3.62042,5.218679 6.80664,5.148437 l -0.0215,-1 c -2.72787,0.06014 -5.13375,-1.759138 -5.81836,-4.400391 -0.81576,-3.147289 1.06756,-6.346344 4.21485,-7.162109 z"
     id="4C76FBF4" />
  <path
     style="color:#000000;fill:#000000;-inkscape-stroke:none"
     d="m 178.03906,83.414062 -5.97461,0.828125 0.13867,0.992188 5.97266,-0.830078 z"
     id="5C76FBF4" />
  <path
     style="color:#000000;fill:#000000;-inkscape-stroke:none"
     d="m 180.52344,88.103516 -2.10742,3.232421 0.83789,0.546875 2.10742,-3.234375 z"
     id="6C76FBF4" />
  <path
     style="color:#000000;fill:#000000;-inkscape-stroke:none"
     d="m 175.63281,68.226562 c -2.21797,0 -4.02734,1.80937 -4.02734,4.027344 0,2.217974 1.80937,4.027344 4.02734,4.027344 2.21798,0 4.02735,-1.80937 4.02735,-4.027344 0,-2.217974 -1.80937,-4.027344 -4.02735,-4.027344 z m 0,1 c 1.67754,0 3.02735,1.34981 3.02735,3.027344 0,1.677535 -1.34981,3.027344 -3.02735,3.027344 -1.67753,0 -3.02734,-1.349809 -3.02734,-3.027344 0,-1.677534 1.34981,-3.027344 3.02734,-3.027344 z"
     id="7C76FBF4" />
  <g
     id="8C76FBF4">
    <path
       style="color:#000000;fill:#000000;-inkscape-stroke:none"
       d="m 178.68261,69.090263 a 1.4911145,1.4911145 0 0 1 -1.49111,1.491115 1.4911145,1.4911145 0 0 1 -1.49112,-1.491115 1.4911145,1.4911145 0 0 1 1.49112,-1.491114 1.4911145,1.4911145 0 0 1 1.49111,1.491114 z"
       id="path21" />
    <path
       style="color:#000000;fill:#000000;-inkscape-stroke:none"
       d="m 177.19141,67.457031 c -0.90012,0 -1.63282,0.732696 -1.63282,1.632813 0,0.900117 0.7327,1.632812 1.63282,1.632812 0.90011,0 1.63281,-0.732695 1.63281,-1.632812 0,-0.900117 -0.7327,-1.632813 -1.63281,-1.632813 z m 0,0.283203 c 0.74692,0 1.34961,0.602689 1.34961,1.34961 0,0.746921 -0.60269,1.349609 -1.34961,1.349609 -0.74692,0 -1.34961,-0.602688 -1.34961,-1.349609 0,-0.746921 0.60269,-1.34961 1.34961,-1.34961 z"
       id="path22" />
  </g>
  <g
     id="9C76FBF4">
    <path
       style="color:#000000;fill:#000000;-inkscape-stroke:none"
       d="m 174.52259,70.851562 a 2.1259844,2.1259844 0 0 1 -2.12598,2.125985 2.1259844,2.1259844 0 0 1 -2.12599,-2.125985 2.1259844,2.1259844 0 0 1 2.12599,-2.125984 2.1259844,2.1259844 0 0 1 2.12598,2.125984 z"
       id="path23" />
    <path
       style="color:#000000;fill:#000000;-inkscape-stroke:none"
       d="m 172.39648,68.583984 c -1.25074,0 -2.26757,1.016833 -2.26757,2.267578 0,1.250746 1.01683,2.267579 2.26757,2.267579 1.25075,0 2.26758,-1.016833 2.26758,-2.267579 0,-1.250745 -1.01683,-2.267578 -2.26758,-2.267578 z m 0,0.283203 c 1.09755,0 1.98438,0.886826 1.98438,1.984375 0,1.09755 -0.88683,1.984375 -1.98438,1.984375 -1.09755,0 -1.98437,-0.886825 -1.98437,-1.984375 0,-1.097549 0.88682,-1.984375 1.98437,-1.984375 z"
       id="path24" />
  </g>
  <g
     id="AC76FBF4">
    <path
       style="color:#000000;fill:#000000;-inkscape-stroke:none"
       d="m 177.46147,73.706108 a 1.4911145,1.4911145 0 0 1 -1.49112,1.491115 1.4911145,1.4911145 0 0 1 -1.49111,-1.491115 1.4911145,1.4911145 0 0 1 1.49111,-1.491114 1.4911145,1.4911145 0 0 1 1.49112,1.491114 z"
       id="path25" />
    <path
       style="color:#000000;fill:#000000;-inkscape-stroke:none"
       d="m 175.9707,72.074219 c -0.90011,0 -1.63281,0.732695 -1.63281,1.632812 0,0.900117 0.7327,1.632813 1.63281,1.632813 0.90012,0 1.63282,-0.732696 1.63282,-1.632813 0,-0.900117 -0.7327,-1.632812 -1.63282,-1.632812 z m 0,0.283203 c 0.74692,0 1.34961,0.602688 1.34961,1.349609 0,0.746921 -0.60269,1.347656 -1.34961,1.347656 -0.74692,0 -1.34961,-0.600735 -1.34961,-1.347656 0,-0.746921 0.60269,-1.349609 1.34961,-1.349609 z"
       id="path26" />
  </g>
  <path
     style="color:#000000;fill:#000000;-inkscape-stroke:none"
     d="m 174.62891,81.783203 -0.0762,0.996094 3.47461,0.265625 0.0762,-0.996094 z"
     id="BC76FBF4" />
  <path
     style="color:#000000;fill:#000000;-inkscape-stroke:none"
     d="m 174.06641,52.945312 c -3.15007,1.545972 -4.45613,5.367503 -2.91016,8.517579 1.47509,3.005636 5.04082,4.356844 8.13672,3.082031 l -0.38086,-0.925781 c -2.61764,1.077877 -5.61021,-0.05438 -6.85742,-2.595704 -1.30787,-2.664914 -0.21178,-5.87182 2.45312,-7.179687 z"
     id="CC76FBF4" />
  <g
     id="DC76FBF4">
    <path
       style="color:#000000;fill:#000000;-inkscape-stroke:none"
       d="m 173.53193,60.637081 a 1.0503441,1.0503441 0 0 1 -1.05035,1.050344 1.0503441,1.0503441 0 0 1 -1.05034,-1.050344 1.0503441,1.0503441 0 0 1 1.05034,-1.050344 1.0503441,1.0503441 0 0 1 1.05035,1.050344 z"
       id="path27" />
    <path
       style="color:#000000;fill:#000000;-inkscape-stroke:none"
       d="m 172.48242,59.445312 c -0.65668,0 -1.19336,0.53472 -1.19336,1.191407 0,0.656686 0.53668,1.193359 1.19336,1.193359 0.65669,0 1.19141,-0.536673 1.19141,-1.193359 0,-0.656687 -0.53472,-1.191407 -1.19141,-1.191407 z m 0,0.283204 c 0.50349,0 0.9082,0.404712 0.9082,0.908203 0,0.50349 -0.40471,0.908203 -0.9082,0.908203 -0.50349,0 -0.91015,-0.404713 -0.91015,-0.908203 0,-0.503491 0.40666,-0.908203 0.91015,-0.908203 z"
       id="path28" />
  </g>
  <path
     style="color:#000000;fill:#000000;-inkscape-stroke:none"
     d="m 176.87109,56.111328 c -1.40153,0 -2.54882,1.145337 -2.54882,2.546875 0,1.401538 1.14729,2.548828 2.54882,2.548828 1.40154,0 2.54688,-1.14729 2.54688,-2.548828 0,-1.401538 -1.14534,-2.546875 -2.54688,-2.546875 z m 0,1 c 0.8611,0 1.54688,0.685777 1.54688,1.546875 0,0.861098 -0.68578,1.548828 -1.54688,1.548828 -0.86109,0 -1.54882,-0.68773 -1.54882,-1.548828 0,-0.861098 0.68773,-1.546875 1.54882,-1.546875 z"
     id="EC76FBF4" />
  <g
     id="FC76FBF4">
    <path
       style="color:#000000;fill:#000000;-inkscape-stroke:none"
       d="m 177.23602,64.256264 a 1.2651223,1.2651223 0 0 1 -1.26512,1.265122 1.2651223,1.2651223 0 0 1 -1.26512,-1.265122 1.2651223,1.2651223 0 0 1 1.26512,-1.265123 1.2651223,1.2651223 0 0 1 1.26512,1.265123 z"
       id="path29" />
    <path
       style="color:#000000;fill:#000000;-inkscape-stroke:none"
       d="m 175.9707,62.849609 c -0.7753,0 -1.40625,0.630945 -1.40625,1.40625 0,0.775305 0.63095,1.408203 1.40625,1.408203 0.77531,0 1.40625,-0.632898 1.40625,-1.408203 0,-0.775305 -0.63094,-1.40625 -1.40625,-1.40625 z m 0,0.283203 c 0.62211,0 1.12305,0.500938 1.12305,1.123047 0,0.62211 -0.50094,1.123047 -1.12305,1.123047 -0.62211,0 -1.12304,-0.500937 -1.12304,-1.123047 0,-0.622109 0.50093,-1.123046 1.12304,-1.123047 z"
       id="path30" />
  </g>
  <g
     id="0D76FBF4">
    <path
       style="color:#000000;fill:#000000;-inkscape-stroke:none"
       d="m 173.49809,55.069607 a 1.2651223,1.2651223 0 0 1 -1.26512,1.265122 1.2651223,1.2651223 0 0 1 -1.26512,-1.265122 1.2651223,1.2651223 0 0 1 1.26512,-1.265123 1.2651223,1.2651223 0 0 1 1.26512,1.265123 z"
       id="path31" />
    <path
       style="color:#000000;fill:#000000;-inkscape-stroke:none"
       d="m 172.23242,53.662109 c -0.7753,0 -1.40625,0.632899 -1.40625,1.408203 0,0.775305 0.63095,1.406251 1.40625,1.40625 0.77531,0 1.4082,-0.630945 1.4082,-1.40625 0,-0.775304 -0.63289,-1.408203 -1.4082,-1.408203 z m 0,0.283203 c 0.62211,0 1.12305,0.502891 1.12305,1.125 0,0.62211 -0.50094,1.123047 -1.12305,1.123047 -0.62211,0 -1.12305,-0.500937 -1.12305,-1.123047 0,-0.622109 0.50094,-1.124999 1.12305,-1.125 z"
       id="path32" />
  </g>
  <path
     style="color:#000000;fill:#000000;-inkscape-stroke:none"
     d="m 166.53711,123.96875 -3.81641,1.44141 0.35157,0.93554 3.81835,-1.4414 z"
     id="1D76FBF4" />
  <g
     id="2D76FBF4">
    <path
       style="color:#000000;fill:#000000;-inkscape-stroke:none"
       d="m 151.80293,33.37038 a 3.5947988,3.5947988 0 0 1 -3.5948,3.594799 3.5947988,3.5947988 0 0 1 -3.5948,-3.594799 3.5947988,3.5947988 0 0 1 3.5948,-3.594798 3.5947988,3.5947988 0 0 1 3.5948,3.594798 z"
       id="path7" />
    <path
       style="color:#000000;fill:#000000;-inkscape-stroke:none"
       d="m 148.20898,29.634766 c -2.06194,0 -3.73828,1.674379 -3.73828,3.736328 0,2.061948 1.67634,3.736328 3.73828,3.736328 2.06195,0 3.73633,-1.67438 3.73633,-3.736328 0,-2.061949 -1.67438,-3.736328 -3.73633,-3.736328 z m 0,0.283203 c 1.90876,0 3.45313,1.544372 3.45313,3.453125 0,1.908752 -1.54437,3.453125 -3.45313,3.453125 -1.90875,0 -3.45312,-1.544373 -3.45312,-3.453125 0,-1.908753 1.54437,-3.453125 3.45312,-3.453125 z"
       id="path8" />
  </g>
  <g
     id="3D76FBF4">
    <path
       style="color:#000000;fill:#000000;-inkscape-stroke:none"
       d="m 156.37282,36.413933 a 1.8502953,1.8502953 0 0 1 -1.8503,1.850295 1.8502953,1.8502953 0 0 1 -1.85029,-1.850295 1.8502953,1.8502953 0 0 1 1.85029,-1.850296 1.8502953,1.8502953 0 0 1 1.8503,1.850296 z"
       id="path33" />
    <path
       style="color:#000000;fill:#000000;-inkscape-stroke:none"
       d="m 154.52344,34.421875 c -1.09849,0 -1.99219,0.893701 -1.99219,1.992187 0,1.098487 0.8937,1.992188 1.99219,1.992188 1.09848,0 1.99023,-0.893701 1.99023,-1.992188 0,-1.098486 -0.89175,-1.992187 -1.99023,-1.992187 z m 0,0.283203 c 0.94529,0 1.70703,0.763693 1.70703,1.708984 0,0.945292 -0.76174,1.708985 -1.70703,1.708985 -0.94529,0 -1.70899,-0.763693 -1.70899,-1.708985 0,-0.945291 0.7637,-1.708984 1.70899,-1.708984 z"
       id="path34" />
  </g>
  <g
     id="4D76FBF4">
    <path
       style="color:#000000;fill:#000000;-inkscape-stroke:none"
       d="m 154.16695,38.37632 a 2.6933928,2.6933928 0 0 1 -2.69339,2.693393 2.6933928,2.6933928 0 0 1 -2.6934,-2.693393 2.6933928,2.6933928 0 0 1 2.6934,-2.693393 2.6933928,2.6933928 0 0 1 2.69339,2.693393 z"
       id="path35" />
    <path
       style="color:#000000;fill:#000000;-inkscape-stroke:none"
       d="m 151.47266,35.541016 c -1.56412,0 -2.83399,1.271821 -2.83399,2.835937 0,1.564116 1.26987,2.833984 2.83399,2.833984 1.56411,0 2.83593,-1.269868 2.83593,-2.833984 0,-1.564116 -1.27182,-2.835937 -2.83593,-2.835937 z m 0,0.283203 c 1.41092,0 2.55273,1.141814 2.55273,2.552734 0,1.410921 -1.14181,2.550781 -2.55273,2.550781 -1.41092,0 -2.55079,-1.13986 -2.55079,-2.550781 0,-1.41092 1.13987,-2.552734 2.55079,-2.552734 z"
       id="path36" />
  </g>
  <path
     style="color:#000000;fill:#000000;-inkscape-stroke:none"
     d="m 142.46484,20.322266 -3.36132,3.08789 0.67773,0.736328 3.35937,-3.08789 z"
     id="5D76FBF4" />
  <path
     style="color:#000000;fill:#000000;-inkscape-stroke:none"
     d="m 143.88281,17.732422 c -1.0798,0 -1.96679,0.885043 -1.96679,1.964844 0,1.0798 0.88699,1.966796 1.96679,1.966796 1.0798,0 1.96485,-0.886996 1.96485,-1.966796 0,-1.079801 -0.88505,-1.964844 -1.96485,-1.964844 z m 0,1 c 0.53936,0 0.96485,0.425482 0.96485,0.964844 0,0.539361 -0.42549,0.966797 -0.96485,0.966796 -0.53936,0 -0.96679,-0.427435 -0.96679,-0.966796 0,-0.539362 0.42743,-0.964844 0.96679,-0.964844 z"
     id="6D76FBF4" />
  <path
     style="color:#000000;fill:#000000;-inkscape-stroke:none"
     d="m 137.70312,16.681641 c -1.66317,3.407503 -0.24539,7.532139 3.16211,9.195312 2.86405,1.397918 6.32193,0.640592 8.33985,-1.826172 l -0.77539,-0.632812 c -1.72764,2.111907 -4.67296,2.757368 -7.125,1.560547 -2.92183,-1.42612 -4.12925,-4.937547 -2.70313,-7.859375 z"
     id="7D76FBF4" />
  <path
     style="color:#000000;fill:#000000;-inkscape-stroke:none"
     d="m 94.884766,0.140625 v 2.9316406 h 1 V 0.140625 Z"
     id="8D76FBF4" />
  <path
     style="color:#000000;fill:#000000;-inkscape-stroke:none"
     d="m 95.384766,2.5722656 c -1.889605,0 -3.433594,1.5420365 -3.433594,3.4316406 0,1.8896042 1.543989,3.4316407 3.433594,3.4316407 1.889604,0 3.43164,-1.5420365 3.43164,-3.4316407 0,-1.8896041 -1.542036,-3.4316406 -3.43164,-3.4316406 z m 0,1 c 1.349164,0 2.43164,1.082476 2.43164,2.4316406 0,1.3491647 -1.082476,2.4316407 -2.43164,2.4316407 -1.349165,0 -2.433594,-1.082476 -2.433594,-2.4316407 0,-1.3491646 1.084429,-2.4316406 2.433594,-2.4316406 z"
     id="9D76FBF4" />
  <path
     style="color:#000000;fill:#000000;-inkscape-stroke:none"
     d="m 151.62891,25.585937 c -3.05138,1.084196 -4.65255,4.45058 -3.56836,7.501954 1.0842,3.051372 4.45058,4.652555 7.50195,3.568359 1.85785,-0.660122 3.26257,-2.211121 3.73633,-4.125 l -0.97071,-0.240234 c -0.39336,1.589125 -1.557,2.873765 -3.0996,3.421875 -2.54213,0.903252 -5.32136,-0.418814 -6.22461,-2.960938 -0.90325,-2.542125 0.41881,-5.321357 2.96093,-6.224609 z"
     id="AD76FBF4" />
  <path
     style="color:#000000;fill:#000000;-inkscape-stroke:none"
     d="m 162.33984,36.503906 c -1.8706,4.385315 0.17524,9.471204 4.56055,11.341797 1.36083,0.580473 2.84745,0.801361 4.31836,0.642578 l -0.10742,-0.99414 c -1.30077,0.140416 -2.61689,-0.05503 -3.82031,-0.56836 -3.88821,-1.658549 -5.68981,-6.141087 -4.03125,-10.029297 z"
     id="BD76FBF4" />
  <path
     style="color:#000000;fill:#000000;-inkscape-stroke:none"
     d="m 139.5957,172.90039 c -1.70713,0.97365 -3.44715,1.89117 -5.21484,2.75 l 0.125,0.25391 c 1.77331,-0.86157 3.51791,-1.78107 5.23047,-2.75782 z"
     id="CD76FBF4" />
  <path
     style="color:#000000;fill:#000000;-inkscape-stroke:none"
     d="m 162.0332,154.72461 c -1.70948,1.92002 -3.50033,3.76593 -5.36914,5.53125 l 0.19336,0.20508 c 1.87475,-1.77092 3.67181,-3.62076 5.38672,-5.54688 z"
     id="DD76FBF4" />
  <path
     style="color:#000000;fill:#000000;-inkscape-stroke:none"
     d="m 185.0625,89.375 -0.99805,0.06641 c 1.01852,15.200114 -1.88678,30.406294 -8.4375,44.160154 l 0.90235,0.43164 c 6.6244,-13.90857 9.56318,-29.28711 8.5332,-44.6582 z"
     id="ED76FBF4" />
  <path
     style="color:#000000;fill:#000000;-inkscape-stroke:none"
     d="m 179.57227,63.90625 -0.9375,0.349609 c 1.54728,4.138228 2.78364,8.386865 3.69921,12.708985 l 0.97852,-0.207032 c -0.92588,-4.370747 -2.17554,-8.666772 -3.74023,-12.851562 z"
     id="FD76FBF4" />
  <path
     style="color:#000000;fill:#000000;-inkscape-stroke:none"
     d="m 171.58789,47.726562 -0.84766,0.529297 c 1.0971,1.754248 2.13346,3.546526 3.10547,5.373047 l 0.88282,-0.46875 c -0.98295,-1.847073 -2.03119,-3.659608 -3.14063,-5.433594 z"
     id="0E76FBF4" />
  <path
     style="color:#000000;fill:#000000;-inkscape-stroke:none"
     d="m 159.16797,32.058594 -0.70899,0.705078 c 1.36799,1.377891 2.69003,2.801109 3.96485,4.265625 l 0.7539,-0.658203 c -1.28916,-1.480992 -2.62639,-2.919106 -4.00976,-4.3125 z"
     id="1E76FBF4" />
  <path
     style="color:#000000;fill:#000000;-inkscape-stroke:none"
     d="m 157.25391,38.759766 -0.0488,0.998046 4.92773,0.240235 L 162.18164,39 Z"
     id="2E76FBF4" />
  <path
     style="color:#000000;fill:#000000;-inkscape-stroke:none"
     d="m 164.29883,45.433594 -5.44141,5.685547 0.72266,0.691406 5.4414,-5.685547 z"
     id="3E76FBF4" />
  <path
     style="color:#000000;fill:#000000;-inkscape-stroke:none"
     d="m 149.11719,23.333984 -0.59961,0.800782 c 1.00374,0.748554 1.99166,1.518299 2.96289,2.308593 l 0.63281,-0.77539 c -0.98215,-0.799186 -1.98106,-1.577008 -2.99609,-2.333985 z"
     id="4E76FBF4" />
  <path
     style="color:#000000;fill:#000000;-inkscape-stroke:none"
     d="m 134.5957,14.507813 -0.43554,0.90039 c 1.26625,0.613929 2.51627,1.258284 3.75195,1.931641 l 0.47851,-0.878907 c -1.24957,-0.680932 -2.51441,-1.332288 -3.79492,-1.953124 z"
     id="5E76FBF4" />
  <g
     id="6E76FBF4">
    <path
       style="color:#000000;fill:#000000;-inkscape-stroke:none"
       d="m 144.29291,23.08037 a 1.4036543,1.4036543 0 0 1 -1.40366,1.403654 1.4036543,1.4036543 0 0 1 -1.40365,-1.403654 1.4036543,1.4036543 0 0 1 1.40365,-1.403654 1.4036543,1.4036543 0 0 1 1.40366,1.403654 z"
       id="path9" />
    <path
       style="color:#000000;fill:#000000;-inkscape-stroke:none"
       d="m 142.88867,21.535156 c -0.85181,0 -1.54492,0.693108 -1.54492,1.544922 0,0.851814 0.69311,1.544922 1.54492,1.544922 0.85182,0 1.54688,-0.693108 1.54688,-1.544922 0,-0.851814 -0.69506,-1.544922 -1.54688,-1.544922 z m 0,0.283203 c 0.69862,0 1.26172,0.563101 1.26172,1.261719 0,0.698618 -0.5631,1.261719 -1.26172,1.261719 -0.69862,0 -1.26172,-0.563101 -1.26172,-1.261719 0,-0.698618 0.5631,-1.261719 1.26172,-1.261719 z"
       id="path10" />
  </g>
  <g
     id="7E76FBF4">
    <path
       style="color:#000000;fill:#000000;-inkscape-stroke:none"
       d="m 138.67828,20.275288 a 2.4062629,2.4062629 0 0 1 -2.40626,2.406263 2.4062629,2.4062629 0 0 1 -2.40626,-2.406263 2.4062629,2.4062629 0 0 1 2.40626,-2.406263 2.4062629,2.4062629 0 0 1 2.40626,2.406263 z"
       id="path11" />
    <path
       style="color:#000000;fill:#000000;-inkscape-stroke:none"
       d="m 136.27148,17.726562 c -1.40553,0 -2.54687,1.14329 -2.54687,2.548829 0,1.405538 1.14134,2.548828 2.54687,2.548828 1.40554,0 2.54883,-1.14329 2.54883,-2.548828 0,-1.405539 -1.14329,-2.548829 -2.54883,-2.548829 z m 0,0.285157 c 1.25235,0 2.26563,1.011329 2.26563,2.263672 0,1.252343 -1.01328,2.263671 -2.26563,2.263671 -1.25234,0 -2.26367,-1.011328 -2.26367,-2.263671 0,-1.252343 1.01133,-2.263672 2.26367,-2.263672 z"
       id="path12" />
  </g>
  <g
     id="8E76FBF4">
    <path
       style="color:#000000;fill:#000000;-inkscape-stroke:none"
       d="m 146.69916,25.084003 a 1.6041744,1.6041744 0 0 1 -1.60417,1.604175 1.6041744,1.6041744 0 0 1 -1.60418,-1.604175 1.6041744,1.6041744 0 0 1 1.60418,-1.604174 1.6041744,1.6041744 0 0 1 1.60417,1.604174 z"
       id="path13" />
    <path
       style="color:#000000;fill:#000000;-inkscape-stroke:none"
       d="m 145.0957,23.337891 c -0.96255,0 -1.74609,0.783535 -1.74609,1.746093 0,0.962558 0.78354,1.746094 1.74609,1.746094 0.96256,0 1.7461,-0.783536 1.7461,-1.746094 0,-0.962558 -0.78354,-1.746093 -1.7461,-1.746093 z m 0,0.283203 c 0.80937,0 1.46094,0.653528 1.46094,1.46289 0,0.809363 -0.65157,1.462891 -1.46094,1.462891 -0.80936,0 -1.46289,-0.653528 -1.46289,-1.462891 0,-0.809362 0.65353,-1.46289 1.46289,-1.46289 z"
       id="path14" />
  </g>
  <path
     style="color:#000000;fill:#000000;-inkscape-stroke:none"
     d="m 122.13477,10.123047 c -0.99214,3.659633 1.1763,7.443418 4.83593,8.435547 3.07597,0.833895 6.3281,-0.55886 7.84571,-3.361328 l -0.87891,-0.476563 c -1.29929,2.399324 -4.07161,3.586982 -6.70508,2.873047 -3.13802,-0.85072 -4.98353,-4.070964 -4.13281,-7.208984 z"
     id="9E76FBF4" />
  <path
     style="color:#000000;fill:#000000;-inkscape-stroke:none"
     d="m 120.07813,8.9628906 -0.27344,0.9628907 c 0.8908,0.2545457 1.77775,0.5224147 2.66015,0.8046877 l 0.30469,-0.9531252 c -0.89233,-0.2854486 -1.79059,-0.5570434 -2.6914,-0.8144532 z"
     id="AE76FBF4" />
  <path
     style="color:#000000;fill:#000000;-inkscape-stroke:none"
     d="m 129.63477,18.244141 -0.9961,0.08789 0.34961,3.990235 0.99609,-0.08789 z"
     id="BE76FBF4" />
  <path
     style="color:#000000;fill:#000000;-inkscape-stroke:none"
     d="m 128.25195,8.3515625 c -2.37437,0 -4.31054,1.9361705 -4.31054,4.3105465 0,2.374377 1.93617,4.308594 4.31054,4.308594 2.37438,0 4.3086,-1.934217 4.3086,-4.308594 0,-2.374376 -1.93422,-4.3105465 -4.3086,-4.3105465 z m 0,1 c 1.83394,0 3.3086,1.4766095 3.3086,3.3105465 0,1.833938 -1.47466,3.308594 -3.3086,3.308594 -1.83393,0 -3.31054,-1.474656 -3.31054,-3.308594 0,-1.833937 1.47661,-3.3105465 3.31054,-3.3105465 z"
     id="CE76FBF4" />
  <path
     style="color:#000000;fill:#000000;-inkscape-stroke:none"
     d="m 106.64258,6.4960937 -0.94727,0.3242188 c 1.54668,4.5097525 6.47072,6.9177765 10.98047,5.3710935 1.39945,-0.479957 2.65242,-1.311293 3.63867,-2.4140622 l -0.74609,-0.6660157 c -0.87218,0.9752149 -1.97922,1.7103239 -3.2168,2.1347659 -3.99854,1.371356 -8.33763,-0.751457 -9.70898,-4.7500003 z"
     id="DE76FBF4" />
  <path
     style="color:#000000;fill:#000000;-inkscape-stroke:none"
     d="M 97.871094,5.5390625 C 89.501727,5.307446 81.127275,6.2451154 72.992187,8.3378906 l 0.248047,0.96875 C 83.966346,6.5473169 95.114948,5.8179366 106.10938,7.1542969 l 0.11914,-0.9941407 C 103.44899,5.8223076 100.66088,5.616268 97.871094,5.5390625 Z"
     id="EE76FBF4" />
  <g
     id="FE76FBF4">
    <path
       style="color:#000000;fill:#000000;-inkscape-stroke:none"
       d="m 114.41385,6.0495028 a 1.6029044,1.6029044 0 0 1 -1.60291,1.6029045 1.6029044,1.6029044 0 0 1 -1.6029,-1.6029045 1.6029044,1.6029044 0 0 1 1.6029,-1.6029044 1.6029044,1.6029044 0 0 1 1.60291,1.6029044 z"
       id="path15" />
    <path
       style="color:#000000;fill:#000000;-inkscape-stroke:none"
       d="m 112.81055,4.3046875 c -0.96186,0 -1.74414,0.782284 -1.74414,1.7441406 0,0.9618567 0.78228,1.7460938 1.74414,1.7460938 0.96185,0 1.74414,-0.7842371 1.74414,-1.7460938 0,-0.9618566 -0.78229,-1.7441406 -1.74414,-1.7441406 z m 0,0.2832031 c 0.80866,0 1.46093,0.6522766 1.46093,1.4609375 0,0.808661 -0.65227,1.4609375 -1.46093,1.4609375 -0.80866,0 -1.46094,-0.6522765 -1.46094,-1.4609375 0,-0.8086609 0.65228,-1.4609375 1.46094,-1.4609375 z"
       id="path16" />
  </g>
  <g
     id="0F76FBF4">
    <path
       style="color:#000000;fill:#000000;-inkscape-stroke:none"
       d="m 112.00742,9.2553148 a 1.8032686,1.8032686 0 0 1 -1.80327,1.8032682 1.8032686,1.8032686 0 0 1 -1.80327,-1.8032682 1.8032686,1.8032686 0 0 1 1.80327,-1.8032685 1.8032686,1.8032686 0 0 1 1.80327,1.8032685 z"
       id="path17" />
    <path
       style="color:#000000;fill:#000000;-inkscape-stroke:none"
       d="m 110.20508,7.3105469 c -1.07252,0 -1.94531,0.8727979 -1.94531,1.9453125 0,1.0725146 0.87279,1.9453126 1.94531,1.9453126 1.07251,0 1.94336,-0.872798 1.94336,-1.9453126 0,-1.0725146 -0.87085,-1.9453125 -1.94336,-1.9453125 z m 0,0.2832031 c 0.91932,0 1.66015,0.7427905 1.66015,1.6621094 0,0.9193186 -0.74083,1.6601566 -1.66015,1.6601566 -0.91932,0 -1.66211,-0.740838 -1.66211,-1.6601566 0,-0.9193189 0.74279,-1.6621094 1.66211,-1.6621094 z"
       id="path18" />
  </g>
  <g
     id="1F76FBF4">
    <path
       style="color:#000000;fill:#000000;-inkscape-stroke:none"
       d="m 117.42135,11.258947 a 2.0036328,2.0036328 0 0 1 -2.00363,2.003633 2.0036328,2.0036328 0 0 1 -2.00364,-2.003633 2.0036328,2.0036328 0 0 1 2.00364,-2.0036324 2.0036328,2.0036328 0 0 1 2.00363,2.0036324 z"
       id="path19" />
    <path
       style="color:#000000;fill:#000000;-inkscape-stroke:none"
       d="m 115.41797,9.1132813 c -1.18317,0 -2.14649,0.9633117 -2.14649,2.1464847 0,1.183172 0.96332,2.144531 2.14649,2.144531 1.18317,0 2.14453,-0.961359 2.14453,-2.144531 0,-1.183173 -0.96136,-2.1464847 -2.14453,-2.1464847 z m 0,0.2832031 c 1.02998,0 1.86133,0.8333046 1.86133,1.8632816 0,1.029976 -0.83135,1.861328 -1.86133,1.861328 -1.02998,0 -1.86133,-0.831352 -1.86133,-1.861328 0,-1.029977 0.83135,-1.8632816 1.86133,-1.8632816 z"
       id="path20" />
  </g>
  <path
     style="color:#000000;fill:#000000;-inkscape-stroke:none"
     d="m 13.84375,125.74609 c -0.792686,0.006 -1.595166,0.15982 -2.369141,0.47852 l 0.38086,0.92383 c 2.617637,-1.07787 5.610211,0.0563 6.857422,2.59765 1.307867,2.66492 0.213742,5.86987 -2.451172,7.17774 l 0.439453,0.89844 c 3.150076,-1.54597 4.456128,-5.3675 2.910156,-8.51758 -1.106314,-2.25423 -3.389521,-3.57579 -5.767578,-3.5586 z"
     id="2F76FBF4" />
  <g
     id="3F76FBF4">
    <path
       style="color:#000000;fill:#000000;-inkscape-stroke:none"
       d="m 52.946602,21.779448 a 3.0820425,3.0820425 0 0 1 -3.082043,3.082042 3.0820425,3.0820425 0 0 1 -3.082042,-3.082042 3.0820425,3.0820425 0 0 1 3.082042,-3.082043 3.0820425,3.0820425 0 0 1 3.082043,3.082043 z"
       id="path87" />
    <path
       style="color:#000000;fill:#000000;-inkscape-stroke:none"
       d="m 49.865234,18.556641 c -1.778761,0 -3.224609,1.443895 -3.224609,3.222656 0,1.778761 1.445848,3.224609 3.224609,3.224609 1.778762,0 3.222657,-1.445848 3.222657,-3.224609 0,-1.778761 -1.443895,-3.222656 -3.222657,-3.222656 z m 0,0.283203 c 1.625566,0 2.939453,1.313887 2.939453,2.939453 0,1.625565 -1.313887,2.941406 -2.939453,2.941406 -1.625565,0 -2.941406,-1.315841 -2.941406,-2.941406 0,-1.625566 1.315841,-2.939453 2.941406,-2.939453 z"
       id="path88" />
  </g>
  <path
     style="color:#000000;fill:#000000;-inkscape-stroke:none"
     d="m 51.566406,17.556641 -0.925781,0.375 c 1.435918,3.538906 0.834088,7.577673 -1.570313,10.544921 -3.649465,4.503773 -10.244274,5.194388 -14.748046,1.544922 l -0.628907,0.777344 c 4.923665,3.989709 12.164588,3.230305 16.154297,-1.693359 2.632556,-3.248813 3.290923,-7.674114 1.71875,-11.548828 z"
     id="4F76FBF4" />
  <path
     style="color:#000000;fill:#000000;-inkscape-stroke:none"
     d="M 14.238281,56.736328 C 7.6138709,70.6449 4.6750974,86.021487 5.7050781,101.39258 l 0.9980469,-0.0664 C 5.6846008,86.126054 8.5898983,70.919882 15.140625,57.166016 Z"
     id="5F76FBF4" />
  <path
     style="color:#000000;fill:#000000;-inkscape-stroke:none"
     d="m 18.496094,61.988281 c -3.551706,0 -6.44336,2.889701 -6.44336,6.441406 0,3.551706 2.891654,6.44336 6.44336,6.44336 3.551705,0 6.441406,-2.891654 6.441406,-6.44336 0,-3.551705 -2.889701,-6.441406 -6.441406,-6.441406 z m 0,1 c 3.011266,0 5.441406,2.43014 5.441406,5.441406 0,3.011267 -2.43014,5.44336 -5.441406,5.44336 -3.011266,0 -5.44336,-2.432093 -5.44336,-5.44336 0,-3.011266 2.432094,-5.441406 5.44336,-5.441406 z"
     id="6F76FBF4" />
  <path
     style="color:#000000;fill:#000000;-inkscape-stroke:none"
     d="m 28.958984,35.574219 -0.660156,0.75 c 4.123307,3.627082 5.320768,9.552398 2.929688,14.496093 C 28.287389,56.901258 20.987196,59.441126 14.90625,56.5 l -0.433594,0.900391 c 6.567468,3.176438 14.479811,0.422935 17.65625,-6.144532 2.584634,-5.343878 1.287159,-11.760952 -3.169922,-15.68164 z"
     id="7F76FBF4" />
  <g
     id="8F76FBF4">
    <path
       style="color:#000000;fill:#000000;-inkscape-stroke:none"
       d="m 40.963779,29.931858 a 3.0820425,3.0820425 0 0 1 -3.082042,3.082043 3.0820425,3.0820425 0 0 1 -3.082043,-3.082043 3.0820425,3.0820425 0 0 1 3.082043,-3.082042 3.0820425,3.0820425 0 0 1 3.082042,3.082042 z"
       id="path89" />
    <path
       style="color:#000000;fill:#000000;-inkscape-stroke:none"
       d="m 37.880859,26.708984 c -1.778761,0 -3.222656,1.443895 -3.222656,3.222657 0,1.778761 1.443895,3.224609 3.222656,3.224609 1.778762,0 3.22461,-1.445848 3.22461,-3.224609 0,-1.778762 -1.445848,-3.222657 -3.22461,-3.222657 z m 0,0.283203 c 1.625566,0 2.941407,1.313888 2.941407,2.939454 0,1.625565 -1.315841,2.941406 -2.941407,2.941406 -1.625565,0 -2.939453,-1.315841 -2.939453,-2.941406 0,-1.625566 1.313888,-2.939453 2.939453,-2.939454 z"
       id="path90" />
  </g>
  <g
     id="9F76FBF4">
    <path
       style="color:#000000;fill:#000000;-inkscape-stroke:none"
       d="m 44.87445,29.579647 a 1.4911145,1.4911145 0 0 1 -1.491115,1.491115 1.4911145,1.4911145 0 0 1 -1.491114,-1.491115 1.4911145,1.4911145 0 0 1 1.491114,-1.491114 1.4911145,1.4911145 0 0 1 1.491115,1.491114 z"
       id="path91" />
    <path
       style="color:#000000;fill:#000000;-inkscape-stroke:none"
       d="m 43.382812,27.947266 c -0.900116,0 -1.632812,0.732695 -1.632812,1.632812 0,0.900117 0.732696,1.632813 1.632812,1.632813 0.900117,0 1.632813,-0.732696 1.632813,-1.632813 0,-0.900117 -0.732696,-1.632812 -1.632813,-1.632812 z m 0,0.283203 c 0.746922,0 1.34961,0.602688 1.34961,1.349609 0,0.746921 -0.602688,1.34961 -1.34961,1.349609 -0.746921,0 -1.349609,-0.602688 -1.349609,-1.349609 0,-0.746921 0.602688,-1.349609 1.349609,-1.349609 z"
       id="path92" />
  </g>
  <path
     style="color:#000000;fill:#000000;-inkscape-stroke:none"
     d="m 43.082031,18.300781 c -1.093739,0 -1.992187,0.898449 -1.992187,1.992188 0,1.093739 0.898448,1.990234 1.992187,1.990234 1.093739,0 1.990235,-0.896495 1.990235,-1.990234 0,-1.093739 -0.896496,-1.992188 -1.990235,-1.992188 z m 0,1 c 0.553299,0 0.990235,0.438889 0.990235,0.992188 0,0.553299 -0.436936,0.990234 -0.990235,0.990234 -0.553299,0 -0.992187,-0.436935 -0.992187,-0.990234 0,-0.553299 0.438888,-0.992188 0.992187,-0.992188 z"
     id="AF76FBF4" />
  <path
     style="color:#000000;fill:#000000;-inkscape-stroke:none"
     d="m 37.505859,35.087891 -6.470703,3.683593 0.494141,0.869141 L 38,35.957031 Z"
     id="BF76FBF4" />
  <path
     style="color:#000000;fill:#000000;-inkscape-stroke:none"
     d="m 33.664062,30.046875 c -1.88225,1.778013 -3.686422,3.63649 -5.408203,5.570312 l 0.746094,0.664063 c 1.702624,-1.912307 3.488301,-3.749581 5.349609,-5.507813 z"
     id="CF76FBF4" />
  <path
     style="color:#000000;fill:#000000;-inkscape-stroke:none"
     d="m 33.910156,30.306641 c -1.874747,1.770926 -3.671801,3.622713 -5.386719,5.548828 l 0.210938,0.1875 c 1.709487,-1.920016 3.502283,-3.765932 5.371094,-5.53125 z"
     id="DF76FBF4" />
  <path
     style="color:#000000;fill:#000000;-inkscape-stroke:none"
     d="m 33.658203,30.546875 c -1.755291,1.671048 -3.442682,3.412782 -5.056641,5.220703 l 0.210938,0.1875 c 1.608848,-1.802197 3.291282,-3.537368 5.041016,-5.203125 z"
     id="EF76FBF4" />
  <path
     style="color:#000000;fill:#000000;-inkscape-stroke:none"
     d="m 32.9375,46.208984 -0.09375,0.996094 7.25,0.691406 0.0957,-0.996093 z"
     id="FF76FBF4" />
  <path
     style="color:#000000;fill:#000000;-inkscape-stroke:none"
     d="m 26.257812,54.035156 c -1.465733,0 -2.664062,1.198329 -2.664062,2.664063 0,1.465733 1.198329,2.666015 2.664062,2.666015 1.465734,0 2.664063,-1.200282 2.664063,-2.666015 0,-1.465734 -1.198329,-2.664063 -2.664063,-2.664063 z m 0,1 c 0.925295,0 1.664063,0.738769 1.664063,1.664063 0,0.925294 -0.738768,1.666015 -1.664063,1.666015 -0.925294,0 -1.664062,-0.740721 -1.664062,-1.666015 0,-0.925294 0.738768,-1.664063 1.664062,-1.664063 z"
     id="0086FBF4" />
  <g
     id="1086FBF4">
    <path
       style="color:#000000;fill:#000000;-inkscape-stroke:none"
       d="m 19.391841,94.920303 a 1.4911145,1.4911145 0 0 1 -1.491115,1.491115 1.4911145,1.4911145 0 0 1 -1.491114,-1.491115 1.4911145,1.4911145 0 0 1 1.491114,-1.491114 1.4911145,1.4911145 0 0 1 1.491115,1.491114 z"
       id="path69" />
    <path
       style="color:#000000;fill:#000000;-inkscape-stroke:none"
       d="m 17.900391,93.287109 c -0.900117,0 -1.632813,0.732696 -1.632813,1.632813 0,0.900117 0.732696,1.632812 1.632813,1.632812 0.900116,0 1.632812,-0.732695 1.632812,-1.632812 0,-0.900117 -0.732696,-1.632813 -1.632812,-1.632813 z m 0,0.283203 c 0.746921,0 1.349609,0.602689 1.349609,1.34961 0,0.746921 -0.602688,1.349609 -1.349609,1.349609 -0.746921,0 -1.34961,-0.602688 -1.34961,-1.349609 0,-0.746921 0.602689,-1.349609 1.34961,-1.34961 z"
       id="path70" />
  </g>
  <path
     style="color:#000000;fill:#000000;-inkscape-stroke:none"
     d="m 14.769531,82.207031 c -3.864536,0 -7.0097654,3.143277 -7.0097654,7.007813 0,3.864536 3.1452294,7.007812 7.0097654,7.007812 3.864536,0 7.007813,-3.143276 7.007813,-7.007812 0,-3.864536 -3.143277,-7.007813 -7.007813,-7.007813 z m 0,1 c 3.324097,0 6.007813,2.683716 6.007813,6.007813 0,3.324096 -2.683716,6.007812 -6.007813,6.007812 -3.324096,0 -6.0097654,-2.683716 -6.0097654,-6.007812 0,-3.324097 2.6856694,-6.007813 6.0097654,-6.007813 z"
     id="2086FBF4" />
  <path
     style="color:#000000;fill:#000000;-inkscape-stroke:none"
     d="m 7.9414062,73.294922 c -1.9723831,0 -3.5820312,1.609648 -3.5820312,3.582031 0,1.972383 1.6096481,3.582031 3.5820312,3.582031 1.9723832,0 3.5820318,-1.609648 3.5820318,-3.582031 0,-1.972383 -1.6096486,-3.582031 -3.5820318,-3.582031 z m 0,1 c 1.4319436,0 2.5820318,1.150088 2.5820318,2.582031 0,1.431944 -1.1500882,2.582031 -2.5820318,2.582031 -1.4319435,0 -2.5820312,-1.150087 -2.5820312,-2.582031 0,-1.431943 1.1500877,-2.582031 2.5820312,-2.582031 z"
     id="3086FBF4" />
  <path
     style="color:#000000;fill:#000000;-inkscape-stroke:none"
     d="m 11.060547,77.027344 -0.207031,0.978515 6.154296,1.302735 0.207032,-0.978516 z"
     id="4086FBF4" />
  <path
     style="color:#000000;fill:#000000;-inkscape-stroke:none"
     d="m 27.695312,64.423828 -3.818359,1.441406 0.353516,0.935547 3.818359,-1.441406 z"
     id="5086FBF4" />
  <path
     style="color:#000000;fill:#000000;-inkscape-stroke:none"
     d="m 6.1933594,100.85938 0.021484,1 c 2.7278708,-0.0601 5.1337573,1.75913 5.8183593,4.40039 0.815765,3.14729 -1.067555,6.34634 -4.2148436,7.16211 l 0.2519531,0.96875 c 3.6704405,-0.95136 5.8830045,-4.71042 4.9316405,-8.38086 -0.799632,-3.08506 -3.6223727,-5.22064 -6.8085936,-5.15039 z"
     id="6086FBF4" />
  <path
     style="color:#000000;fill:#000000;-inkscape-stroke:none"
     d="m 12.740234,107.72266 -0.07617,0.99609 3.474609,0.26758 0.07617,-0.99805 z"
     id="7086FBF4" />
  <path
     style="color:#000000;fill:#000000;-inkscape-stroke:none"
     d="m 11.513672,98.886719 -2.107422,3.232421 0.837891,0.54688 2.107422,-3.234379 z"
     id="8086FBF4" />
  <path
     style="color:#000000;fill:#000000;-inkscape-stroke:none"
     d="m 18.566406,105.53516 -5.974609,0.82812 0.136719,0.99024 5.974609,-0.82813 z"
     id="9086FBF4" />
  <path
     style="color:#000000;fill:#000000;-inkscape-stroke:none"
     d="m 8.4335938,113.80273 -0.9785157,0.20704 c 0.9258783,4.37074 2.1775037,8.66677 3.7421879,12.85156 l 0.935547,-0.34961 c -1.547276,-4.13823 -2.7836422,-8.38687 -3.6992192,-12.70899 z"
     id="A086FBF4" />
  <g
     id="B086FBF4">
    <path
       style="color:#000000;fill:#000000;-inkscape-stroke:none"
       d="m 20.497589,119.91665 a 2.1259844,2.1259844 0 0 1 -2.125984,2.12598 2.1259844,2.1259844 0 0 1 -2.125985,-2.12598 2.1259844,2.1259844 0 0 1 2.125985,-2.12599 2.1259844,2.1259844 0 0 1 2.125984,2.12599 z"
       id="path71" />
    <path
       style="color:#000000;fill:#000000;-inkscape-stroke:none"
       d="m 18.371094,117.64844 c -1.250746,0 -2.267578,1.01683 -2.267578,2.26758 0,1.25074 1.016832,2.26757 2.267578,2.26757 1.250745,0 2.267578,-1.01683 2.267578,-2.26757 0,-1.25075 -1.016833,-2.26758 -2.267578,-2.26758 z m 0,0.2832 c 1.09755,0 1.984375,0.88683 1.984375,1.98438 0,1.09755 -0.886825,1.98437 -1.984375,1.98437 -1.09755,0 -1.984375,-0.88682 -1.984375,-1.98437 0,-1.09755 0.886825,-1.98438 1.984375,-1.98438 z"
       id="path72" />
  </g>
  <g
     id="C086FBF4">
    <path
       style="color:#000000;fill:#000000;-inkscape-stroke:none"
       d="m 16.06243,126.51194 a 1.2651223,1.2651223 0 0 1 -1.265122,1.26512 1.2651223,1.2651223 0 0 1 -1.265122,-1.26512 1.2651223,1.2651223 0 0 1 1.265122,-1.26512 1.2651223,1.2651223 0 0 1 1.265122,1.26512 z"
       id="path73" />
    <path
       style="color:#000000;fill:#000000;-inkscape-stroke:none"
       d="m 14.796875,125.10547 c -0.775305,0 -1.40625,0.63094 -1.40625,1.40625 0,0.7753 0.630945,1.40625 1.40625,1.40625 0.775305,0 1.408203,-0.63095 1.408203,-1.40625 0,-0.77531 -0.632898,-1.40625 -1.408203,-1.40625 z m 0,0.2832 c 0.622109,0 1.123047,0.50094 1.123047,1.12305 0,0.62211 -0.500938,1.12305 -1.123047,1.12305 -0.622109,0 -1.123047,-0.50094 -1.123047,-1.12305 0,-0.62211 0.500938,-1.12305 1.123047,-1.12305 z"
       id="path74" />
  </g>
  <path
     style="color:#000000;fill:#000000;-inkscape-stroke:none"
     d="m 15.134766,114.48828 c -2.217975,0 -4.025391,1.80742 -4.025391,4.02539 0,2.21798 1.807416,4.02735 4.025391,4.02735 2.217974,0 4.027343,-1.80937 4.027343,-4.02735 0,-2.21797 -1.809369,-4.02539 -4.027343,-4.02539 z m 0,1 c 1.677534,0 3.027343,1.34786 3.027343,3.02539 0,1.67754 -1.349809,3.02735 -3.027343,3.02735 -1.677535,0 -3.025391,-1.34981 -3.025391,-3.02735 0,-1.67753 1.347856,-3.02539 3.025391,-3.02539 z"
     id="D086FBF4" />
  <g
     id="E086FBF4">
    <path
       style="color:#000000;fill:#000000;-inkscape-stroke:none"
       d="m 15.067824,121.67795 a 1.4911145,1.4911145 0 0 1 -1.491114,1.49111 1.4911145,1.4911145 0 0 1 -1.491115,-1.49111 1.4911145,1.4911145 0 0 1 1.491115,-1.49112 1.4911145,1.4911145 0 0 1 1.491114,1.49112 z"
       id="path75" />
    <path
       style="color:#000000;fill:#000000;-inkscape-stroke:none"
       d="m 13.576172,120.04492 c -0.900117,0 -1.632813,0.7327 -1.632813,1.63281 0,0.90012 0.732696,1.63282 1.632813,1.63282 0.900117,0 1.632812,-0.7327 1.632812,-1.63282 0,-0.90011 -0.732695,-1.63281 -1.632812,-1.63281 z m 0,0.28321 c 0.746921,0 1.349609,0.60268 1.349609,1.3496 0,0.74693 -0.602688,1.34961 -1.349609,1.34961 -0.746921,0 -1.34961,-0.60268 -1.349609,-1.34961 0,-0.74692 0.602688,-1.34961 1.349609,-1.3496 z"
       id="path76" />
  </g>
  <g
     id="F086FBF4">
    <path
       style="color:#000000;fill:#000000;-inkscape-stroke:none"
       d="m 16.28897,117.0621 a 1.4911145,1.4911145 0 0 1 -1.491115,1.49112 1.4911145,1.4911145 0 0 1 -1.491114,-1.49112 1.4911145,1.4911145 0 0 1 1.491114,-1.49111 1.4911145,1.4911145 0 0 1 1.491115,1.49111 z"
       id="path77" />
    <path
       style="color:#000000;fill:#000000;-inkscape-stroke:none"
       d="m 14.798828,115.42969 c -0.900117,0 -1.634765,0.73269 -1.634765,1.63281 0,0.90012 0.734648,1.63281 1.634765,1.63281 0.900117,0 1.632813,-0.73269 1.632813,-1.63281 0,-0.90012 -0.732696,-1.63281 -1.632813,-1.63281 z m 0,0.2832 c 0.746921,0 1.347656,0.60269 1.347656,1.34961 0,0.74692 -0.600735,1.34961 -1.347656,1.34961 -0.746921,0 -1.349609,-0.60269 -1.349609,-1.34961 0,-0.74692 0.602688,-1.34961 1.349609,-1.34961 z"
       id="path78" />
  </g>
  <g
     id="0186FBF4">
    <path
       style="color:#000000;fill:#000000;-inkscape-stroke:none"
       d="m 81.18928,16.354666 a 1.4911145,1.4911145 0 0 1 -1.491114,1.491114 1.4911145,1.4911145 0 0 1 -1.491115,-1.491114 1.4911145,1.4911145 0 0 1 1.491115,-1.491115 1.4911145,1.4911145 0 0 1 1.491114,1.491115 z"
       id="path1" />
    <path
       style="color:#000000;fill:#000000;-inkscape-stroke:none"
       d="m 79.697266,14.722656 c -0.900117,0 -1.632813,0.732696 -1.632813,1.632813 0,0.900117 0.732696,1.632812 1.632813,1.632812 0.900116,0 1.632812,-0.732695 1.632812,-1.632812 0,-0.900117 -0.732696,-1.632813 -1.632812,-1.632813 z m 0,0.283203 c 0.746921,0 1.349609,0.602689 1.349609,1.34961 0,0.746921 -0.602688,1.347656 -1.349609,1.347656 -0.746921,0 -1.347657,-0.600735 -1.347657,-1.347656 0,-0.746921 0.600736,-1.34961 1.347657,-1.34961 z"
       id="path2" />
  </g>
  <g
     id="1186FBF4">
    <path
       style="color:#000000;fill:#000000;-inkscape-stroke:none"
       d="m 81.342791,10.325912 a 1.4911145,1.4911145 0 0 1 -1.491114,1.491115 1.4911145,1.4911145 0 0 1 -1.491115,-1.491115 1.4911145,1.4911145 0 0 1 1.491115,-1.491114 1.4911145,1.4911145 0 0 1 1.491114,1.491114 z"
       id="path3" />
    <path
       style="color:#000000;fill:#000000;-inkscape-stroke:none"
       d="m 79.851562,8.6933594 c -0.900116,0 -1.632812,0.7326957 -1.632812,1.6328126 0,0.900117 0.732696,1.632812 1.632812,1.632812 0.900117,0 1.632813,-0.732695 1.632813,-1.632812 0,-0.9001169 -0.732696,-1.6328126 -1.632813,-1.6328126 z m 0,0.2832031 c 0.746922,0 1.34961,0.6026883 1.34961,1.3496095 0,0.746921 -0.602688,1.349609 -1.34961,1.349609 -0.746921,0 -1.349609,-0.602688 -1.349609,-1.349609 0,-0.7469212 0.602688,-1.3496095 1.349609,-1.3496095 z"
       id="path4" />
  </g>
  <path
     style="color:#000000;fill:#000000;-inkscape-stroke:none"
     d="m 79.775391,9.8242188 c -1.935553,0 -3.515625,1.5800722 -3.515625,3.5156252 0,1.935552 1.580072,3.515625 3.515625,3.515625 1.935552,0 3.515625,-1.580073 3.515625,-3.515625 0,-1.935553 -1.580073,-3.5156252 -3.515625,-3.5156252 z m 0,1.0000002 c 1.395113,0 2.515625,1.120512 2.515625,2.515625 0,1.395113 -1.120512,2.515625 -2.515625,2.515625 -1.395113,0 -2.515625,-1.120512 -2.515625,-2.515625 0,-1.395113 1.120512,-2.515625 2.515625,-2.515625 z"
     id="2186FBF4" />
  <path
     style="color:#000000;fill:#000000;-inkscape-stroke:none"
     d="m 72.621094,8.7578125 c -0.2533,1.9398495 -1.093569,3.7563135 -2.408203,5.2050785 -3.564359,3.928024 -9.62471,4.222562 -13.552735,0.658203 l -0.671875,0.740234 c 4.328251,3.927532 11.037314,3.601689 14.964844,-0.726562 1.451595,-1.5997 2.378514,-3.6061 2.658203,-5.7480472 z"
     id="3186FBF4" />
  <path
     style="color:#000000;fill:#000000;-inkscape-stroke:none"
     d="m 56.107422,14.541016 c -1.780401,0.865006 -3.532538,1.78888 -5.251953,2.769531 l 0.496093,0.867187 c 1.700286,-0.96974 3.430815,-1.882899 5.191407,-2.738281 z"
     id="4186FBF4" />
  <path
     style="color:#000000;fill:#000000;-inkscape-stroke:none"
     d="m 56.263672,14.863281 c -1.773304,0.861558 -3.517907,1.78107 -5.230469,2.757813 l 0.140625,0.246093 c 1.707139,-0.973649 3.445202,-1.891169 5.212891,-2.749999 z"
     id="5186FBF4" />
  <path
     style="color:#000000;fill:#000000;-inkscape-stroke:none"
     d="m 56.263672,14.863281 c -1.668917,0.810842 -3.312424,1.672965 -4.927735,2.585938 l 0.138672,0.246093 c 1.610196,-0.910081 3.248478,-1.76985 4.91211,-2.578124 z"
     id="6186FBF4" />
  <g
     id="7186FBF4">
    <path
       style="color:#000000;fill:#000000;-inkscape-stroke:none"
       d="m 78.447751,15.417503 a 0.85858595,0.85858595 0 0 1 -0.858586,0.858586 0.85858595,0.85858595 0 0 1 -0.858586,-0.858586 0.85858595,0.85858595 0 0 1 0.858586,-0.858586 0.85858595,0.85858595 0 0 1 0.858586,0.858586 z"
       id="path5" />
    <path
       style="color:#000000;fill:#000000;-inkscape-stroke:none"
       d="m 77.589844,14.417969 c -0.550782,0 -1.001953,0.449218 -1.001953,1 0,0.550781 0.451171,1 1.001953,1 0.550781,0 1,-0.449219 1,-1 0,-0.550782 -0.449219,-1 -1,-1 z m 0,0.283203 c 0.397585,0 0.716797,0.319211 0.716797,0.716797 0,0.397585 -0.319212,0.716797 -0.716797,0.716797 -0.397586,0 -0.716797,-0.319212 -0.716797,-0.716797 0,-0.397586 0.319211,-0.716797 0.716797,-0.716797 z"
       id="path6" />
  </g>
  <path
     style="color:#000000;fill:#000000;-inkscape-stroke:none"
     d="m 50.988281,166.62109 -3.361328,3.08985 0.675781,0.73633 3.361328,-3.08985 z"
     id="8186FBF4" />
  <path
     style="color:#000000;fill:#000000;-inkscape-stroke:none"
     d="m 47.675781,164.24023 c -2.274988,-0.26128 -4.597882,0.6265 -6.111328,2.47657 l 0.773438,0.63281 c 1.727639,-2.1119 4.672958,-2.75737 7.125,-1.56055 2.921829,1.42612 4.129245,4.93755 2.703125,7.85938 l 0.90039,0.4375 c 1.663175,-3.40751 0.243441,-7.53214 -3.164062,-9.19532 -0.716012,-0.34947 -1.468233,-0.56329 -2.226563,-0.65039 z"
     id="9186FBF4" />
  <path
     style="color:#000000;fill:#000000;-inkscape-stroke:none"
     d="m 37.511719,153.7832 c -0.761625,-0.0453 -1.543798,0.059 -2.306641,0.33008 -1.857852,0.66013 -3.260623,2.20916 -3.734375,4.12305 l 0.970703,0.24023 c 0.393364,-1.58913 1.557003,-2.87376 3.09961,-3.42187 2.542125,-0.90325 5.321357,0.41881 6.224609,2.96093 0.903253,2.54213 -0.418812,5.32136 -2.960938,6.22461 l 0.333985,0.94336 c 3.051373,-1.0842 4.652556,-4.45058 3.568359,-7.50195 -0.813147,-2.28853 -2.910439,-3.76245 -5.195312,-3.89844 z"
     id="A186FBF4" />
  <path
     style="color:#000000;fill:#000000;-inkscape-stroke:none"
     d="m 19.550781,142.2793 0.105469,0.99414 c 1.300775,-0.14042 2.616889,0.055 3.820312,0.56836 3.88821,1.65854 5.6898,6.14108 4.03125,10.02929 l 0.919922,0.39258 c 1.870593,-4.38532 -0.173279,-9.4712 -4.558593,-11.3418 -1.360827,-0.58047 -2.847445,-0.80136 -4.31836,-0.64257 z"
     id="B186FBF4" />
  <path
     style="color:#000000;fill:#000000;-inkscape-stroke:none"
     d="m 16.921875,137.13867 -0.880859,0.4707 c 0.982953,1.84708 2.029236,3.65766 3.138671,5.43165 l 0.847657,-0.5293 c -1.097093,-1.75425 -2.133452,-3.54653 -3.105469,-5.37305 z"
     id="C186FBF4" />
  <g
     id="D186FBF4">
    <path
       style="color:#000000;fill:#000000;-inkscape-stroke:none"
       d="m 19.800357,135.69861 a 1.2651223,1.2651223 0 0 1 -1.265123,1.26512 1.2651223,1.2651223 0 0 1 -1.265122,-1.26512 1.2651223,1.2651223 0 0 1 1.265122,-1.26512 1.2651223,1.2651223 0 0 1 1.265123,1.26512 z"
       id="path51" />
    <path
       style="color:#000000;fill:#000000;-inkscape-stroke:none"
       d="m 18.535156,134.29102 c -0.775305,0 -1.40625,0.63289 -1.40625,1.4082 0,0.7753 0.630945,1.40625 1.40625,1.40625 0.775305,0 1.40625,-0.63095 1.40625,-1.40625 0,-0.77531 -0.630945,-1.4082 -1.40625,-1.4082 z m 0,0.28515 c 0.622109,0 1.123047,0.50094 1.123047,1.12305 0,0.62211 -0.500938,1.12305 -1.123047,1.12305 -0.622109,0 -1.123047,-0.50094 -1.123047,-1.12305 0,-0.62211 0.500938,-1.12305 1.123047,-1.12305 z"
       id="path52" />
  </g>
  <g
     id="E186FBF4">
    <path
       style="color:#000000;fill:#000000;-inkscape-stroke:none"
       d="m 19.336965,130.13113 a 1.0503441,1.0503441 0 0 1 -1.050344,1.05035 1.0503441,1.0503441 0 0 1 -1.050344,-1.05035 1.0503441,1.0503441 0 0 1 1.050344,-1.05034 1.0503441,1.0503441 0 0 1 1.050344,1.05034 z"
       id="path79" />
    <path
       style="color:#000000;fill:#000000;-inkscape-stroke:none"
       d="m 18.287109,128.93945 c -0.656686,0 -1.193359,0.53472 -1.193359,1.19141 0,0.65669 0.536673,1.19141 1.193359,1.19141 0.656687,0 1.191407,-0.53472 1.191407,-1.19141 0,-0.65669 -0.53472,-1.19141 -1.191407,-1.19141 z m 0,0.28321 c 0.503491,0 0.908203,0.40471 0.908203,0.9082 0,0.50349 -0.404712,0.9082 -0.908203,0.9082 -0.50349,0 -0.908203,-0.40471 -0.908203,-0.9082 0,-0.50349 0.404713,-0.9082 0.908203,-0.9082 z"
       id="path80" />
  </g>
  <path
     style="color:#000000;fill:#000000;-inkscape-stroke:none"
     d="m 13.898438,129.56055 c -1.401538,0 -2.548829,1.14729 -2.548829,2.54882 0,1.40154 1.147291,2.54883 2.548829,2.54883 1.401537,0 2.546874,-1.14729 2.546874,-2.54883 0,-1.40153 -1.145337,-2.54882 -2.546874,-2.54882 z m 0,1 c 0.861098,0 1.546874,0.68773 1.546875,1.54882 0,0.8611 -0.685777,1.54883 -1.546875,1.54883 -0.861099,0 -1.548829,-0.68773 -1.548829,-1.54883 0,-0.86109 0.68773,-1.54882 1.548829,-1.54882 z"
     id="F186FBF4" />
  <path
     style="color:#000000;fill:#000000;-inkscape-stroke:none"
     d="m 31.1875,138.95898 -5.441406,5.68555 0.722656,0.69141 5.441406,-5.68555 z"
     id="0286FBF4" />
  <g
     id="1286FBF4">
    <path
       style="color:#000000;fill:#000000;-inkscape-stroke:none"
       d="m 38.095973,154.35428 a 1.8502953,1.8502953 0 0 1 -1.850295,1.85029 1.8502953,1.8502953 0 0 1 -1.850295,-1.85029 1.8502953,1.8502953 0 0 1 1.850295,-1.8503 1.8502953,1.8502953 0 0 1 1.850295,1.8503 z"
       id="path53" />
    <path
       style="color:#000000;fill:#000000;-inkscape-stroke:none"
       d="m 36.246094,152.36133 c -1.098487,0 -1.992188,0.8937 -1.992188,1.99219 0,1.09848 0.893701,1.99218 1.992188,1.99218 1.098486,0 1.992187,-0.8937 1.992187,-1.99218 0,-1.09849 -0.893701,-1.99219 -1.992187,-1.99219 z m 0,0.28515 c 0.945291,0 1.708984,0.76174 1.708984,1.70704 0,0.94529 -0.763693,1.70898 -1.708984,1.70898 -0.945291,0 -1.708985,-0.76369 -1.708985,-1.70898 0,-0.9453 0.763694,-1.70704 1.708985,-1.70704 z"
       id="path54" />
  </g>
  <path
     style="color:#000000;fill:#000000;-inkscape-stroke:none"
     d="m 28.634766,150.76953 -0.04883,0.99805 4.927735,0.24023 0.04883,-0.99804 z"
     id="2286FBF4" />
  <path
     style="color:#000000;fill:#000000;-inkscape-stroke:none"
     d="m 28.345703,153.74023 -0.755859,0.65625 c 1.289156,1.48099 2.626392,2.91911 4.009765,4.3125 l 0.710938,-0.70507 c -1.36798,-1.37789 -2.690029,-2.79916 -3.964844,-4.26368 z"
     id="3286FBF4" />
  <g
     id="4286FBF4">
    <path
       style="color:#000000;fill:#000000;-inkscape-stroke:none"
       d="m 41.988048,152.39189 a 2.6933928,2.6933928 0 0 1 -2.693393,2.69339 2.6933928,2.6933928 0 0 1 -2.693393,-2.69339 2.6933928,2.6933928 0 0 1 2.693393,-2.69339 2.6933928,2.6933928 0 0 1 2.693393,2.69339 z"
       id="path55" />
    <path
       style="color:#000000;fill:#000000;-inkscape-stroke:none"
       d="m 39.294922,149.55664 c -1.564116,0 -2.835938,1.27182 -2.835938,2.83594 0,1.56411 1.271822,2.83398 2.835938,2.83398 1.564116,0 2.833984,-1.26987 2.833984,-2.83398 0,-1.56412 -1.269868,-2.83594 -2.833984,-2.83594 z m 0,0.2832 c 1.41092,0 2.550781,1.14182 2.550781,2.55274 0,1.41092 -1.139861,2.55078 -2.550781,2.55078 -1.410921,0 -2.552735,-1.13986 -2.552735,-2.55078 0,-1.41092 1.141814,-2.55274 2.552735,-2.55274 z"
       id="path56" />
  </g>
  <path
     style="color:#000000;fill:#000000;-inkscape-stroke:none"
     d="m 39.287109,164.32422 -0.630859,0.77539 c 0.98215,0.79918 1.981054,1.57701 2.996094,2.33398 L 42.25,166.63281 c -1.003745,-0.74855 -1.991669,-1.5183 -2.962891,-2.30859 z"
     id="5286FBF4" />
  <g
     id="6286FBF4">
    <path
       style="color:#000000;fill:#000000;-inkscape-stroke:none"
       d="m 49.282618,167.68784 a 1.4036543,1.4036543 0 0 1 -1.403655,1.40365 1.4036543,1.4036543 0 0 1 -1.403654,-1.40365 1.4036543,1.4036543 0 0 1 1.403654,-1.40366 1.4036543,1.4036543 0 0 1 1.403655,1.40366 z"
       id="path57" />
    <path
       style="color:#000000;fill:#000000;-inkscape-stroke:none"
       d="m 47.878906,165.78516 c -1.045436,0 -1.904297,0.8569 -1.904297,1.90234 0,1.04544 0.858861,1.9043 1.904297,1.9043 1.045436,0 1.904297,-0.85886 1.904297,-1.9043 0,-1.04544 -0.858861,-1.90234 -1.904297,-1.90234 z m 0,1 c 0.504997,0 0.904297,0.39734 0.904297,0.90234 0,0.505 -0.3993,0.9043 -0.904297,0.9043 -0.504996,0 -0.904297,-0.3993 -0.904297,-0.9043 0,-0.505 0.399301,-0.90234 0.904297,-0.90234 z"
       id="path58" />
  </g>
  <path
     style="color:#000000;fill:#000000;-inkscape-stroke:none"
     d="m 46.886719,169.10547 c -1.079801,0 -1.966797,0.88504 -1.966797,1.96484 0,1.0798 0.886996,1.9668 1.966797,1.9668 1.079801,0 1.964844,-0.887 1.964843,-1.9668 0,-1.0798 -0.885042,-1.96484 -1.964843,-1.96484 z m 0,1 c 0.539361,0 0.964843,0.42548 0.964843,0.96484 0,0.53936 -0.425482,0.9668 -0.964843,0.9668 -0.539362,0 -0.966797,-0.42744 -0.966797,-0.9668 0,-0.53936 0.427435,-0.96484 0.966797,-0.96484 z"
     id="7286FBF4" />
  <g
     id="8286FBF4">
    <path
       style="color:#000000;fill:#000000;-inkscape-stroke:none"
       d="m 47.277392,165.6842 a 1.6041744,1.6041744 0 0 1 -1.604174,1.60418 1.6041744,1.6041744 0 0 1 -1.604175,-1.60418 1.6041744,1.6041744 0 0 1 1.604175,-1.60417 1.6041744,1.6041744 0 0 1 1.604174,1.60417 z"
       id="path59" />
    <path
       style="color:#000000;fill:#000000;-inkscape-stroke:none"
       d="m 45.673828,163.9375 c -0.962558,0 -1.746094,0.78354 -1.746094,1.74609 0,0.96256 0.783536,1.7461 1.746094,1.7461 0.962558,0 1.746094,-0.78354 1.746094,-1.7461 0,-0.96255 -0.783536,-1.74609 -1.746094,-1.74609 z m 0,0.28516 c 0.809362,0 1.460938,0.65157 1.460938,1.46093 0,0.80937 -0.651576,1.46289 -1.460938,1.46289 -0.809362,0 -1.462891,-0.65352 -1.462891,-1.46289 0,-0.80936 0.653529,-1.46093 1.462891,-1.46093 z"
       id="path60" />
  </g>
  <g
     id="9286FBF4">
    <path
       style="color:#000000;fill:#000000;-inkscape-stroke:none"
       d="m 82.367325,181.51289 a 1.8032686,1.8032686 0 0 1 -1.803269,1.80327 1.8032686,1.8032686 0 0 1 -1.803268,-1.80327 1.8032686,1.8032686 0 0 1 1.803268,-1.80326 1.8032686,1.8032686 0 0 1 1.803269,1.80326 z"
       id="path61" />
    <path
       style="color:#000000;fill:#000000;-inkscape-stroke:none"
       d="m 80.564453,179.56836 c -1.072514,0 -1.945312,0.8728 -1.945312,1.94531 0,1.07252 0.872798,1.94336 1.945312,1.94336 1.072515,0 1.945313,-0.87084 1.945313,-1.94336 0,-1.07251 -0.872798,-1.94531 -1.945313,-1.94531 z m 0,0.2832 c 0.919319,0 1.662109,0.74279 1.662109,1.66211 0,0.91932 -0.74279,1.66016 -1.662109,1.66016 -0.919319,0 -1.662109,-0.74084 -1.662109,-1.66016 0,-0.91932 0.74279,-1.66211 1.662109,-1.66211 z"
       id="path62" />
  </g>
  <path
     style="color:#000000;fill:#000000;-inkscape-stroke:none"
     d="m 77.494141,178.12891 c -1.119914,-0.0788 -2.274906,0.0606 -3.402344,0.44726 -1.399443,0.47996 -2.652416,1.31129 -3.638672,2.41406 l 0.746094,0.66797 c 0.872176,-0.97522 1.981179,-1.71032 3.21875,-2.13476 3.998542,-1.37136 8.337629,0.75146 9.708984,4.75 l 0.945313,-0.32422 c -1.160012,-3.38231 -4.218385,-5.58397 -7.578125,-5.82031 z"
     id="A286FBF4" />
  <g
     id="B286FBF4">
    <path
       style="color:#000000;fill:#000000;-inkscape-stroke:none"
       d="m 77.35412,179.50926 a 2.0036328,2.0036328 0 0 1 -2.003633,2.00363 2.0036328,2.0036328 0 0 1 -2.003633,-2.00363 2.0036328,2.0036328 0 0 1 2.003633,-2.00363 2.0036328,2.0036328 0 0 1 2.003633,2.00363 z"
       id="path63" />
    <path
       style="color:#000000;fill:#000000;-inkscape-stroke:none"
       d="m 75.349609,177.36328 c -1.183172,0 -2.144531,0.96331 -2.144531,2.14649 0,1.18317 0.961359,2.14453 2.144531,2.14453 1.183173,0 2.146485,-0.96136 2.146485,-2.14453 0,-1.18318 -0.963312,-2.14649 -2.146485,-2.14649 z m 0,0.2832 c 1.029977,0 1.863282,0.83331 1.863282,1.86329 0,1.02997 -0.833305,1.86132 -1.863282,1.86132 -1.029976,0 -1.861328,-0.83135 -1.861328,-1.86132 0,-1.02998 0.831352,-1.86329 1.861328,-1.86329 z"
       id="path64" />
  </g>
  <path
     style="color:#000000;fill:#000000;-inkscape-stroke:none"
     d="m 62.517578,173.79687 c -2.374377,0 -4.310547,1.93618 -4.310547,4.31055 0,2.37438 1.93617,4.3086 4.310547,4.3086 2.374377,0 4.308594,-1.93422 4.308594,-4.3086 0,-2.37437 -1.934217,-4.31055 -4.308594,-4.31055 z m 0,1 c 1.833937,0 3.308594,1.47661 3.308594,3.31055 0,1.83394 -1.474657,3.3086 -3.308594,3.3086 -1.833937,0 -3.310547,-1.47466 -3.310547,-3.3086 0,-1.83394 1.47661,-3.31055 3.310547,-3.31055 z"
     id="C286FBF4" />
  <path
     style="color:#000000;fill:#000000;-inkscape-stroke:none"
     d="m 61.486328,171.98828 c -2.283508,0.17156 -4.396958,1.48213 -5.535156,3.58399 l 0.878906,0.4746 c 1.299284,-2.39932 4.071605,-3.58698 6.705078,-2.87304 3.138021,0.85071 4.985485,4.07096 4.134766,7.20898 l 0.964844,0.26172 c 0.992128,-3.65963 -1.178258,-7.44342 -4.837891,-8.43555 -0.768991,-0.20847 -1.549377,-0.27789 -2.310547,-0.2207 z"
     id="D286FBF4" />
  <path
     style="color:#000000;fill:#000000;-inkscape-stroke:none"
     d="m 52.855469,173.42773 -0.478516,0.87891 c 1.249583,0.68094 2.514424,1.33228 3.794922,1.95313 l 0.4375,-0.9004 c -1.266257,-0.61393 -2.51823,-1.25828 -3.753906,-1.93164 z"
     id="E286FBF4" />
  <g
     id="F286FBF4">
    <path
       style="color:#000000;fill:#000000;-inkscape-stroke:none"
       d="m 56.902452,170.49292 a 2.4062629,2.4062629 0 0 1 -2.406263,2.40626 2.4062629,2.4062629 0 0 1 -2.406263,-2.40626 2.4062629,2.4062629 0 0 1 2.406263,-2.40626 2.4062629,2.4062629 0 0 1 2.406263,2.40626 z"
       id="path65" />
    <path
       style="color:#000000;fill:#000000;-inkscape-stroke:none"
       d="m 54.496094,167.94531 c -1.405539,0 -2.548828,1.14134 -2.548828,2.54688 0,1.40554 1.143289,2.54883 2.548828,2.54883 1.405539,0 2.548828,-1.14329 2.548828,-2.54883 0,-1.40554 -1.143289,-2.54688 -2.548828,-2.54688 z m 0,0.28321 c 1.252343,0 2.263672,1.01132 2.263672,2.26367 0,1.25234 -1.011329,2.26562 -2.263672,2.26562 -1.252343,0 -2.263672,-1.01328 -2.263672,-2.26562 0,-1.25235 1.011329,-2.26367 2.263672,-2.26367 z"
       id="path66" />
  </g>
  <path
     style="color:#000000;fill:#000000;-inkscape-stroke:none"
     d="m 61.78125,168.44531 -0.996094,0.0879 0.347656,3.99024 0.996094,-0.0859 z"
     id="0386FBF4" />
  <path
     style="color:#000000;fill:#000000;-inkscape-stroke:none"
     d="M 68.304687,180.03711 68,180.99023 c 0.892334,0.28545 1.78863,0.55705 2.689453,0.81446 l 0.275391,-0.96094 c -0.890801,-0.25455 -1.77775,-0.52437 -2.660157,-0.80664 z"
     id="1386FBF4" />
  <g
     id="2386FBF4">
    <path
       style="color:#000000;fill:#000000;-inkscape-stroke:none"
       d="m 79.560172,184.7187 a 1.6029044,1.6029044 0 0 1 -1.602904,1.60291 1.6029044,1.6029044 0 0 1 -1.602905,-1.60291 1.6029044,1.6029044 0 0 1 1.602905,-1.6029 1.6029044,1.6029044 0 0 1 1.602904,1.6029 z"
       id="path67" />
    <path
       style="color:#000000;fill:#000000;-inkscape-stroke:none"
       d="m 77.957031,182.97461 c -0.961856,0 -1.74414,0.78228 -1.74414,1.74414 0,0.96186 0.782284,1.74414 1.74414,1.74414 0.961857,0 1.744141,-0.78228 1.744141,-1.74414 0,-0.96186 -0.782284,-1.74414 -1.744141,-1.74414 z m 0,0.2832 c 0.808661,0 1.460938,0.65228 1.460938,1.46094 0,0.80866 -0.652277,1.46094 -1.460938,1.46094 -0.808661,0 -1.460937,-0.65228 -1.460937,-1.46094 0,-0.80866 0.652276,-1.46094 1.460937,-1.46094 z"
       id="path68" />
  </g>
  <path
     style="color:#000000;fill:#000000;-inkscape-stroke:none"
     d="m 117.52734,181.46094 c -10.72611,2.75932 -21.872754,3.49066 -32.867184,2.15429 l -0.121094,0.99219 c 11.118121,1.3514 22.391498,0.61264 33.238278,-2.17773 z"
     id="3386FBF4" />
</svg>
